{
    "asset" : {
        "generator" : "Khronos glTF Blender I/O v1.7.33",
        "version" : "2.0"
    },
    "scene" : 0,
    "scenes" : [
        {
            "name" : "Scene",
            "nodes" : [
                1
            ]
        }
    ],
    "nodes" : [
        {
            "mesh" : 0,
            "name" : "Icing"
        },
        {
            "children" : [
                0
            ],
            "mesh" : 1,
            "name" : "Donut",
            "translation" : [
                0,
                0.02027245983481407,
                0
            ]
        }
    ],
    "meshes" : [
        {
            "name" : "Torus.002",
            "primitives" : [
                {
                    "attributes" : {
                        "POSITION" : 0
                    },
                    "indices" : 1
                }
            ]
        },
        {
            "name" : "Torus.001",
            "primitives" : [
                {
                    "attributes" : {
                        "POSITION" : 2
                    },
                    "indices" : 3
                }
            ]
        }
    ],
    "accessors" : [
        {
            "bufferView" : 0,
            "componentType" : 5126,
            "count" : 71808,
            "max" : [
                0.07210925966501236,
                0.029220618307590485,
                0.0748572126030922
            ],
            "min" : [
                -0.07010000199079514,
                -0.010816930793225765,
                -0.07156330347061157
            ],
            "type" : "VEC3"
        },
        {
            "bufferView" : 1,
            "componentType" : 5125,
            "count" : 430848,
            "type" : "SCALAR"
        },
        {
            "bufferView" : 2,
            "componentType" : 5126,
            "count" : 23040,
            "max" : [
                0.07087323814630508,
                0.025084851309657097,
                0.07310980558395386
            ],
            "min" : [
                -0.06748276948928833,
                -0.023316653445363045,
                -0.07007662206888199
            ],
            "type" : "VEC3"
        },
        {
            "bufferView" : 3,
            "componentType" : 5123,
            "count" : 138240,
            "type" : "SCALAR"
        }
    ],
    "bufferViews" : [
        {
            "buffer" : 0,
            "byteLength" : 861696,
            "byteOffset" : 0
        },
        {
            "buffer" : 0,
            "byteLength" : 1723392,
            "byteOffset" : 861696
        },
        {
            "buffer" : 0,
            "byteLength" : 276480,
            "byteOffset" : 2585088
        },
        {
            "buffer" : 0,
            "byteLength" : 276480,
            "byteOffset" : 2861568
        }
    ],
    "buffers" : [
        {
            "byteLength" : 3138048,
            "uri" : "data:application/octet-stream;base64,"
        }
    ]
}
